<svg width="90" height="28" fill="none" xmlns="http://www.w3.org/2000/svg"><path fill-rule="evenodd" clip-rule="evenodd" d="M21.037.969v20.484c0 .271.09.498.272.68a.917.917 0 0 0 .677.273h3.485c.27 0 .495-.09.677-.273a.925.925 0 0 0 .272-.68v-9.397c1.483-1.49 2.873-2.822 4.17-2.822 1.981 0 2.972.76 2.972 3.25v8.97c0 .27.09.497.272.679a.917.917 0 0 0 .677.273h3.47a.936.936 0 0 0 .965-.953v-8.969c0-2.541-.633-4.43-1.899-5.664-1.265-1.234-2.907-1.851-4.924-1.851-2.018 0-3.919.755-5.703 2.265V.97a.944.944 0 0 0-.272-.696A.917.917 0 0 0 25.47 0h-3.485a.917.917 0 0 0-.677.273.944.944 0 0 0-.273.696zM0 13.867c0 2.86.799 5.05 2.396 6.57 1.598 1.521 3.828 2.282 6.69 2.282 5.15.01 7.646-1.086 8.123-3.547.049-.251-.29-1.046-1.793-1.256-1.502-.211-2.476-.307-2.984.318s-1.452.938-2.832.938-2.383-.292-3.01-.875c-.628-.584-.994-1.516-1.097-2.797h11.716c.28 0 .51-.091.692-.273a.944.944 0 0 0 .273-.696v-.89c0-2.792-.8-4.935-2.397-6.43-1.597-1.495-3.822-2.242-6.675-2.242-2.852 0-5.082.768-6.69 2.304C.804 8.81 0 11.008 0 13.867zm12.697-1.664H5.46c.125-2.458 1.336-3.687 3.634-3.687 2.297 0 3.498 1.229 3.602 3.687zM86 14a4 4 0 1 0 0-8 4 4 0 0 0 0 8zM45.776 24.031l2.038.266c1.239 0 2.16-.773 2.767-2.318.011-.028-.078-.042-.242-.069-.627-.102-2.355-.383-3.863-2.272-1.728-2.165-1.985-3-2.654-5.18v-.001l-.218-.704-2.319-7.547a.824.824 0 0 1-.046-.29c0-.109.065-.241.194-.398.13-.156.324-.24.584-.25l3.059.013c.3 0 .589.102.864.305.274.203.453.456.536.758l2.039 6.625c.508 1.625 1.024 2.75 1.548 3.375s1.143.937 1.86.937l3.096-10.937c.083-.302.246-.555.49-.758.243-.203.516-.305.817-.305h3.283c.259 0 .45.084.575.25.125.167.187.305.187.414 0 .11-.01.2-.031.274l-4.077 14.593c-.726 2.584-1.626 4.428-2.7 5.532C52.49 27.448 51.109 28 49.418 28l-.65-.003c-1.35-.015-2.33-.076-2.936-.184-.7-.125-1.139-.28-1.315-.461a.883.883 0 0 1-.265-.633V25c0-.281.089-.513.265-.695a.91.91 0 0 1 .684-.274h.576zm16.369-2.75c-1.37-.958-2.054-2.312-2.054-4.062 0-1.75.687-3.094 2.062-4.032 1.374-.937 3.145-1.406 5.313-1.406h5.15c0-1.219-.254-2.067-.762-2.547-.508-.479-1.398-.718-2.668-.718-1.187 0-2.043.274-2.569.823l-.108.122c-.513.63-2.13.416-3.572.138-1.444-.278-1.537-1.014-1.408-1.397.724-2.156 3.486-3.233 8.287-3.233 2.468 0 4.45.554 5.943 1.664C77.253 7.743 78 9.458 78 11.78v9.672c0 .281-.088.51-.264.688a.924.924 0 0 1-.685.265h-3.003a.91.91 0 0 1-.685-.273.939.939 0 0 1-.264-.68v-.484c-1.64 1.177-3.53 1.763-5.672 1.758-2.142-.006-3.903-.487-5.282-1.446zm5.695-5.953h4.776v2.438c-1.483.937-3.023 1.406-4.62 1.406-.8 0-1.417-.182-1.852-.547a1.735 1.735 0 0 1-.654-1.39c0-.563.21-1.021.63-1.376.42-.354.993-.53 1.72-.53z" fill="#fff"/></svg>