<svg width="320" height="575" fill="none" xmlns="http://www.w3.org/2000/svg"><path fill="#1565D8" d="M0 0h320v575H0z"/><mask id="prefix__a" mask-type="alpha" maskUnits="userSpaceOnUse" x="0" y="0" width="320" height="575"><path fill="#fff" d="M0 0h320v575H0z"/></mask><g mask="url(#prefix__a)"><path opacity=".101" fill-rule="evenodd" clip-rule="evenodd" d="M404 198c103.277 0 187-83.723 187-187s-83.723-187-187-187S217-92.277 217 11s83.723 187 187 187zm0-63c-68.483 0-124-55.517-124-124s55.517-124 124-124S528-57.483 528 11s-55.517 124-124 124z" fill="url(#prefix__b)"/></g><defs><linearGradient id="prefix__b" x1="236.283" y1="100.709" x2="457.455" y2="199.542" gradientUnits="userSpaceOnUse"><stop stop-color="#fff"/><stop offset="1" stop-color="#fff" stop-opacity=".01"/></linearGradient></defs></svg>