<svg width="24" height="24" fill="none" xmlns="http://www.w3.org/2000/svg"><g fill="#36B37E"><path opacity=".15" fill-rule="evenodd" clip-rule="evenodd" d="M12 24c6.627 0 12-5.373 12-12S18.627 0 12 0 0 5.373 0 12s5.373 12 12 12z"/><path d="m10.398 15.824-3.261-3.242A.476.476 0 0 1 7 12.23c0-.143.046-.26.137-.351l.722-.703a.435.435 0 0 1 .342-.156c.137 0 .257.052.361.156l2.188 2.187 4.687-4.687a.496.496 0 0 1 .362-.156c.136 0 .25.052.341.156l.723.703A.476.476 0 0 1 17 9.73c0 .144-.046.26-.137.352l-5.761 5.742a.446.446 0 0 1-.352.156.446.446 0 0 1-.352-.156z"/></g></svg>